<svg xmlns="http://www.w3.org/2000/svg" version="1" width="950" height="140"><path d="M579.31 11.61c-3.196.196-6.442 3.173-4.945 6.495 1.874 4.175 5.545 10.451 9.914 8.52 3.907-1.722 1.674-9.693-1.104-13.332-.984-1.287-2.413-1.773-3.866-1.683zm-209.981 5.128c-4.657.209-8.949 1.98-11.887 4.917-2.329 2.33-3.55 5.126-3.55 8.1 0 2.98 1.221 5.795 3.55 8.125 3.134 3.133 7.82 4.918 12.833 4.918 9.044 0 16.383-5.852 16.383-13.043 0-2.974-1.221-5.77-3.55-8.1-3.132-3.132-7.812-4.918-12.833-4.917-.313 0-.636-.014-.946 0zm314.8 1.314a4.244 4.244 0 0 0-2.525.816c-3.726 2.662-8.197 9.619-4.97 12.412 3.61 3.126 8.98-1.79 11.991-5.233 2.84-3.24-.774-7.963-4.497-7.995zm-117.784.553c-3.276.064-6.965 4.12-4.865 6.837 2.785 3.632 7.392 10.271 11.176 7.363 3.386-2.604-.72-9.023-3.419-12.728-.776-1.063-1.8-1.494-2.892-1.472zm322.662 3.655c-1.502 0-2.96.386-4.391 1.157a8.305 8.305 0 0 0-3.366 3.313 9.078 9.078 0 0 0-1.184 4.497c0 1.542.393 3.021 1.184 4.444a8.35 8.35 0 0 0 3.313 3.314c1.42.786 2.895 1.183 4.444 1.183 1.55 0 3.052-.396 4.47-1.183 1.42-.787 2.501-1.89 3.288-3.314.787-1.423 1.183-2.902 1.183-4.444a9.12 9.12 0 0 0-1.183-4.497 8.282 8.282 0 0 0-3.366-3.313c-1.431-.77-2.89-1.157-4.392-1.157zm-794.192.605c-8.976.166-21.038 1.298-30.399 4.602-6.634 2.336-7.878 7.531-8.783 11.307 0 0-.29 1.071-.29 1.079-5.635 22.066-3.816 59.61 3.788 78.732.035.094.056.138.078.21v.08c.037.137.898 3.478 5.47 4.549 41.347 9.68 61.38-.362 69.634-7.205 7.163-5.94 10.907-13.751 10.545-21.984-.68-15.577-14.415-20.487-22.43-23.352-.92-.334-2.39-.67-3.235-.973-.927-.325-.874-.642.052-1.105.918-.462 2.761-1.34 2.761-1.34 3.828-1.823 16.138-9.14 13.99-23.379-2.576-17.059-24.6-20.359-31.293-20.958-.123-.008-.113 0-.105 0-2.261-.208-5.703-.339-9.783-.263zm198.384 0c-8.977.166-21.043 1.298-30.4 4.602-6.633 2.336-7.879 7.531-8.782 11.307 0 0-.282 1.071-.29 1.079-5.628 22.066-3.824 59.61 3.787 78.732.036.094.064.138.08.21v.08c.035.137.889 3.478 5.469 4.549 41.347 9.68 61.36-.362 69.608-7.205 7.162-5.94 10.933-13.751 10.571-21.984-.68-15.577-14.422-20.487-22.431-23.352-.927-.334-2.395-.67-3.235-.973-.925-.325-.865-.642.053-1.105.927-.462 2.761-1.34 2.761-1.34 3.827-1.823 16.139-9.14 13.99-23.379-2.576-17.059-24.608-20.359-31.293-20.958-.123-.008-.113 0-.106 0-2.26-.208-5.701-.339-9.782-.263zm595.808.894c1.25 0 2.488.302 3.682.947 1.194.644 2.12 1.59 2.787 2.787.668 1.198 1 2.438 1 3.734 0 1.289-.343 2.526-1 3.708a6.974 6.974 0 0 1-2.76 2.761 7.491 7.491 0 0 1-3.709.973 7.491 7.491 0 0 1-3.707-.973 7 7 0 0 1-2.762-2.761c-.66-1.182-.999-2.42-.999-3.708 0-1.296.327-2.536 1-3.734a7.045 7.045 0 0 1 2.813-2.787c1.19-.645 2.398-.947 3.655-.947zm-373.389.605c-9.049-.055-17.489 2.43-23.878 6.81-9.919 6.794-16.169 15.462-16.067 29.006.116 16.48 27.875 28.795 27.875 28.795 14.976 7.459 8.075 18.06-2.525 16.12-9.34-1.707-16.691-6.031-22.747-10.387-2.17-1.562-5.818-.455-5.89 3.944-.036 2.46-.053 9.099-.053 9.099-.014 1.99 1.33 4.029 3.261 5.917 4.834 4.709 16.2 13.858 40.313 13.858 17.646 0 37.3-7.33 39.709-29.794 1.215-11.3-5.89-24.972-29.374-34.949-8.227-3.494-11.89-7.33-9.546-12.727 2.222-5.144 10.535-6.008 18.145-2.498 8.552 3.935 16.073-9.693 8.31-14.78-8.812-5.766-18.484-8.36-27.533-8.414zm324.898 0c-9.05-.055-17.512 2.43-23.904 6.81-9.912 6.794-16.135 15.462-16.041 29.006.123 16.48 27.848 28.795 27.848 28.795 14.976 7.459 8.1 18.06-2.498 16.12-9.34-1.707-16.684-6.031-22.747-10.387-2.162-1.562-5.844-.455-5.916 3.944-.044 2.46-.053 9.099-.053 9.099-.015 1.99 1.347 4.029 3.287 5.917 4.825 4.709 16.199 13.858 40.313 13.858 17.64 0 37.292-7.33 39.708-29.794 1.215-11.3-5.914-24.972-29.4-34.949-8.225-3.494-11.882-7.33-9.545-12.727 2.221-5.144 10.56-6.008 18.17-2.498 8.545 3.935 16.047-9.693 8.284-14.78-8.812-5.766-18.456-8.36-27.506-8.414zm-637.042.21c-1.762.002-3.827.079-6.311.21-12.509.652-16.453 5.76-20.301 12.386-16.83 26.408-30.814 74.16-30.952 74.63-1.642 5.79-1.418 7.507 14.753 12.781 7.003 2.278 11.597 2.682 14.042 1.236 1.586-.933 2.208-2.683 2.656-5.049.218-1.143.88-3.379 1.973-6.627l.289-.868s.18-.4.578-.341c.392.072.894.157.894.157 8.921 1.476 22.267.413 33.213-2.656 0 0 .51-.132.973-.263.456-.13.658.342.658.342l.29.973c1.837 5.766 3.158 10.102 3.628 11.86.427 1.614 1.247 2.645 2.498 3.13 2.294.882 7.161.547 17.356-6.023 10.983-7.082 10.081-10.14 9.046-13.7-.13-.448-.252-.931-.368-1.394-7.184-27.529-23.975-61.294-33.055-75.446-2.568-4.003-4.223-5.348-11.86-5.338zm418.988.368c-44.814.234-54.288 41.836-28.584 57.906 1.482.926.589 3.031-1.184 6.338-2.214 4.131-8.482 9.53-16.015 13.437-5.035 2.605-12.54 6.996-7.6 13.675 0 0 5.834 7.463 11.782 10.255 7.17 3.358 12.264 1.862 18.407-2.261 3.314-2.222 13.582-12.814 22.879-24.535 3.943-4.956 9.708-2.858 9.151 4.391 0 0-.972 11.396-1.262 13.754-.81 6.808 2.607 9.316 8.678 9.309 0 0 9.178-.583 13.7-1.263 6.375-.962 8.05-6.966 9.31-10.729 8.863-26.37 8.677-66.189 8.677-66.189.739-10.02-2.711-13.187-7.205-15.068-1.62-.68-6.942-3.888-22.641-7.1-6.57-1.343-12.59-1.948-18.093-1.92zm-177.11.263c-10.698.02-25.38 1.301-33.291 3.471-11.728 3.22-13.082 11.655-14.174 18.435-1.267 7.849-3.45 36.9.71 61.035 1.273 7.393 5.02 11.51 13.332 14.62 10.013 3.762 39.174 4.923 45.888 1.841 4.392-1.743 5.07-4.907 5.418-5.6 1.346-2.692 3.208-9.648 3.208-15.674 0-1.41-.43-2.45-1.341-3.182-1.606-1.287-4.335-1.296-5.68-.999-4.023.876-12.64.892-21.88.841 0 0-2.672.109-3.918-1.367-.687-.81-1.16-2.025-1.052-3.182l.342-4.128a4.162 4.162 0 0 1 4.208-3.787c7.48.1 22.818-1.248 23.614-1.341 1.252-.153 3.196-1.957 3.63-3.998.326-1.497.738-6.125.788-9.966.036-3.422-4.292-4.148-4.365-4.155-1.25-.202-12.653-1.969-21.248-2.787a4.183 4.183 0 0 1-3.708-4.891c.181-1.028.377-2.196.579-3.498.333-2.098 2.212-3.606 4.339-3.498 4.971.254 14.172.755 19.96 1.21 7.256.58 8.391-2.374 9.072-5.97.643-3.436-1.838-12.704-3.025-15.54-1.113-2.691-3.625-6.396-12.438-7.495-2.286-.286-5.401-.401-8.967-.395zm439.737 1.341v9.625h1.552v-4.102h.92c.546 0 .951.12 1.236.342.411.3.958 1.041 1.63 2.235l.842 1.525h1.893l-1.157-1.893c-.561-.894-1.032-1.514-1.42-1.894a2.637 2.637 0 0 0-.815-.526c.83-.063 1.496-.346 1.999-.868a2.555 2.555 0 0 0 .736-1.84c0-.498-.147-.978-.447-1.42a2.36 2.36 0 0 0-1.21-.92c-.506-.179-1.315-.264-2.445-.264h-3.314zm-158.465.158c-2.612-.087-5.154 1.04-7.363 4.786-1.671 2.85-15.834 27.715-16.094 59.694-.253 30.77 31.356 46.846 59.826 28.217 32.607-21.343 34.432-69.664 33.029-85.833-.37-4.204-2.8-6.443-6.838-6.443-1.649 0-6.801.305-11.439.92-4.609.615-5.917 4.189-5.916 7.705 0 3.517 2.244 30.216-11.466 49.202-13.703 18.977-25.175 6.904-24.43-4.208 1.1-16.33 10.349-33.848 12.36-38.63 1.787-4.218.413-8.061-2.314-9.335-2.995-1.397-11.322-3.833-15.778-5.339-1.19-.402-2.39-.696-3.577-.736zm160.017 1.13h1.762c.758 0 1.27.074 1.551.185.28.11.526.274.684.5.158.225.236.477.236.762 0 .443-.171.783-.5 1.052-.327.269-.939.42-1.84.42h-1.893v-2.918zm-191.678.869a3.428 3.428 0 0 0-2.025.71c-3.66 2.741-9.47 7.696-6.995 11.176 2.763 3.893 9.126-1.113 12.86-3.76 3.143-2.241-.189-8.211-3.84-8.126zM97.47 44.323c4.292-.051 8.84.446 11.571 2.367 1.592 1.122 2.512 2.617 2.787 4.418.361 2.38-.369 4.694-2.156 6.705-3.906 4.392-12.278 6.835-22.378 6.496 0 0-1.037-.053-1.5-.053-.463 0-.5-.526-.5-.526s-.575-16.815-.525-17.33c.03-.267.068-.498.184-.578.299-.2 1.278-.335 1.499-.368.375-.074 5.5-1.065 11.018-1.131zm198.384 0c4.29-.051 8.813.446 11.544 2.367 1.592 1.122 2.54 2.617 2.814 4.418.362 2.38-.395 4.694-2.183 6.705-3.906 4.392-12.252 6.835-22.352 6.496 0 0-1.043-.053-1.499-.053-.463 0-.5-.526-.5-.526l-.052-1.472-.473-14.674s-.05-.67 0-1.184c.022-.267.068-.498.184-.578.296-.203 1.33-.339 1.525-.368.374-.074 5.477-1.065 10.992-1.131zm70.423 3.287c-15.067.11-15.747 10.038-16.251 12.912-1.332 7.503-3.425 33.577-.763 56.512.832 7.184 7.927 10.402 21.195 9.52 9.963-.667 14.242-3.759 16.094-6.233 1.743-2.323 2.242-5.329 1.446-8.888-3.314-14.904-2.88-43.741-2.156-52.2.267-3.132-.273-5.334-1.683-6.89-2.373-2.619-7.327-4.404-16.357-4.707-.516-.017-1.039-.03-1.525-.026zm259.419 2.446c5.579-.093 10.982.77 12.701 1.393 1.694.623 1.071 16.197-1.078 16.436-4.594.514-27.002 2.964-26.481-10.282.232-5.747 7.685-7.428 14.858-7.547zM198.74 66.886c.152-.001.307.224.473.683.123.362 11.347 24.93 11.281 24.93.13.29.483 1.027-.552 1.157-6.403.847-15.769 1.038-22.352.473-.796-.072-.696-.668-.5-1.13.203-.463 10.894-24.758 11.176-25.482.163-.427.32-.63.474-.631zM95.394 82.243c5.492-.02 12.48.647 16.383 3.76 1.903 1.52 2.971 3.477 3.182 5.786.296 3.226-.505 5.884-2.393 7.889-4.536 4.811-14.72 4.859-25.666 4.497 0 0-.88.076-1.604-.053-.52-.094-.5-.552-.5-.552l.053-1.578.789-17.25s.052-.952.052-1.342c0-.399.447-.5.447-.5l1.315-.157c.31-.041 3.67-.485 7.942-.5zm198.384 0c5.493-.02 12.476.647 16.383 3.76 1.902 1.52 2.972 3.477 3.181 5.786.304 3.226-.504 5.884-2.393 7.889-4.536 4.811-14.72 4.859-25.665 4.497 0 0-.88.076-1.604-.053-.521-.094-.5-.552-.5-.552l.079-1.578.762-17.25s.053-.952.053-1.342c0-.399.447-.5.447-.5l1.315-.157c.31-.041 3.67-.485 7.942-.5z" fill="#604c89"/></svg>